<svg xmlns="http://www.w3.org/2000/svg" version="1.1" xmlns:xlink="http://www.w3.org/1999/xlink" xmlns:svgjs="http://svgjs.com/svgjs" width="1440" height="560" preserveAspectRatio="none" viewBox="0 0 1440 560"><g mask="url(&quot;#SvgjsMask1016&quot;)" fill="none"><rect width="1440" height="560" x="0" y="0" fill="rgba(21, 67, 96, 1)"></rect><path d="M0,485.132C111.269,490.282,225.332,554.6,326.584,508.175C430.185,460.673,481.511,345.184,530.086,242.082C579.136,137.972,637.165,23.806,607.132,-87.292C577.646,-196.364,449.023,-239.597,376.46,-326.204C302.168,-414.874,286.397,-565.001,176.536,-601.226C67.049,-637.328,-37.298,-535.846,-146.406,-498.614C-249.806,-463.329,-370.536,-465.249,-447.928,-388.131C-527.102,-309.237,-551.606,-192.206,-565.236,-81.269C-578.661,27.994,-571.064,139.776,-525.077,239.795C-479.16,339.663,-407.302,432.289,-307.718,478.819C-212.848,523.146,-104.603,480.291,0,485.132" fill="#0e2c3e"></path><path d="M1440 989.96C1520.252 977.693 1594.272 950.024 1664.686 909.617 1738.384 867.325 1828.064 830.35 1857.218 750.537 1886.189 671.226 1831.818 588.586 1811.9270000000001 506.525 1794.1309999999999 433.108 1789.7060000000001 356.36199999999997 1746.628 294.305 1700.609 228.012 1632.127 185.106 1561.59 145.901 1473.935 97.18200000000002 1381.541 5.461999999999989 1286.968 38.822 1191.16 72.618 1201.534 218.94299999999998 1135.545 296.188 1070.289 372.574 934.452 386.7 907.178 483.392 880.197 579.046 959.547 670.281 1005.113 758.606 1048.569 842.841 1082.68 941.275 1166.3600000000001 985.7909999999999 1248.562 1029.521 1347.959 1004.029 1440 989.96" fill="#1c5a82"></path></g><defs><mask id="SvgjsMask1016"><rect width="1440" height="560" fill="#ffffff"></rect></mask></defs></svg>